# xmcd CD database file
#
# Track frame offsets:
#	150
#	15935
#	29540
#	46660
#	64725
#	85397
#	103130
#	122517
#	138385
#	156660
#	169617
#	190170
#	211202
#
# Disc length: 3046 seconds
#
# Revision: 2
# Processed by: cddbd v1.5.2PL0 Copyright (c) Steve Scherf et al.
# Submitted via: CDex 1.79
#
DISCID=aa0be40d
DTITLE=Blue Dogs - Halos And Good Buys
DYEAR=2004
DGENRE=Country
TTITLE0=What`s Wrong With Love Songs
TTITLE1=Wrong Love At The Right Time
TTITLE2=Mr. Rain
TTITLE3=Janie And Me
TTITLE4=Half Of My Mistakes
TTITLE5=Make Your Mama Proud
TTITLE6=Four Winds
TTITLE7=Cosmic Cowboy
TTITLE8=Always As We Know It
TTITLE9=Your Sweet Love
TTITLE10=Walter
TTITLE11=My Forever You
TTITLE12=Baby`s Coming Home
EXTD=YEAR: 2004
EXTT0=
EXTT1=
EXTT2=
EXTT3=
EXTT4=
EXTT5=
EXTT6=
EXTT7=
EXTT8=
EXTT9=
EXTT10=
EXTT11=
EXTT12=
PLAYORDER=
